<svg viewBox="0 0 366.34 366.34" xmlns="http://www.w3.org/2000/svg" xmlns:xlink="http://www.w3.org/1999/xlink"><linearGradient id="a" gradientUnits="userSpaceOnUse" x1="86.18" x2="312.66" y1="272.08" y2="272.08"><stop offset="0" stop-color="#16243f"/><stop offset="1" stop-color="#6878b1"/></linearGradient><path d="m198.55 230.49c-10.4-.18-20.81-.68-31.62-1.34-13.47-.83-29.84 2.5-42.7-2.66-12.48-5-20.43-12.93-28.63-23-4.27-5.21-10.86-7.86-17.25-10s-13.06-4.11-18.2-8.47-8.27-11.93-5.33-18c7.23-14.91 30.75-9.93 30.8-32.43 0-7.65-3.41-16.22 1.13-22.38a19.07 19.07 0 0 1 5.54-4.58c10.3-6.35 23.58-5.73 33.8-12 11.54-7.14 9.14-20.65 19.42-30.07a71.87 71.87 0 0 1 11.08-7.94c26.92-16.66 54.75-15.1 82.33.77 14.75 8.51 27.56 23.77 33.59 39.61 6.69 17.64-6.51 37.25 4.6 52.59 2.52 3.48 5.86 6.3 8.59 9.62 11.44 13.9-6.17 22.46-13.39 31.9-5.79 7.59-4.9 18.69-10.46 26.45-6.45 9-19 10.51-30.09 11.2-11.39.75-22.3.92-33.21.73z" fill="#845161"/><path d="m312.66 282.21a184.56 184.56 0 0 1 -226.48-1l48.66-22.81a47.68 47.68 0 0 0 4.35-2.34l1.12-.7c.4-.25.79-.51 1.18-.78a46.54 46.54 0 0 0 14.67-16.47c4-7.55 5.32-15.89 5.38-24.39 0-4.67-.19-9.34-.31-14q0-1.58-.06-3.15-.06-4.75-.1-9.51l2 1 5.2 2.69 30.29 5.15 31.12 5.3.91 30.9v1.07l.47 15.87 11.47 4.67 9 3.64z" fill="#f2a196"/><path d="m230.57 225.09c-2.72 1.68-5.29 2.47-7.54 2.23-14.79-1.59-43.64-13.18-61.8-34.63q0-1.58-.06-3.15-.06-4.75-.1-9.51l2 1 5.2 2.69 30.29 5.15 31.12 5.3z" fill="#e88870"/><circle cx="136.07" cy="155.03" fill="#f2a196" r="17"/><circle cx="142.07" cy="153.03" fill="#e88870" r="17"/><path d="m251.61 129.29c11.74 40.69-13.21 89.87-28.54 89.87-21 0-72-16.78-83.73-57.46s3.86-80.92 34.86-89.87 65.66 16.78 77.41 57.46z" fill="#f2a196"/><path d="m188.45 137.74c6.1 0 6.1 9.38 0 9.42h-.28c-6.1 0-6.1-9.37 0-9.42z" fill="#00214e"/><path d="m238.71 133.9c5.66 0 5.66 8.7 0 8.75h-.26c-5.66-.05-5.66-8.7 0-8.75z" fill="#00214e"/><circle cx="188.43" cy="142.53" fill="none" r="19" stroke="#fff" stroke-miterlimit="10"/><circle cx="241.57" cy="139.53" fill="none" r="19" stroke="#fff" stroke-miterlimit="10"/><path d="m212.9 75.2c-4.3 18.71-13.69 34.59-30.86 46.15-18.51 12.82-38.07 19-59.39 23.26.54-13.11-.9-31.55 5.86-43.25a79.48 79.48 0 0 1 32.31-30.36c14.8-7.65 37.71-15.15 54.35-9.84a112 112 0 0 1 -2.27 14.04z" fill="#845161"/><g fill="none" stroke-miterlimit="10"><path d="m214.65 131.19c-.08.34 7.92 32.34 7.92 32.34h-12.5" stroke="#00214e"/><path d="m226.11 121a31.08 31.08 0 0 1 22.89-2.18" stroke="#00214e"/><path d="m171 124.67a36.7 36.7 0 0 1 31.22-1" stroke="#00214e"/><path d="m207.43 142.53 15.14-1.29" stroke="#fff"/></g><path d="m312.66 282.21a184.56 184.56 0 0 1 -226.48-1l48.66-22.81a46.83 46.83 0 0 0 6.65-3.82c.64-.44 1.28-.9 1.89-1.38a46.35 46.35 0 0 0 12.78-15.09 44.69 44.69 0 0 0 4.64-14.48 28.66 28.66 0 0 0 2.22 1.94 95.14 95.14 0 0 0 19.82 11.26 99 99 0 0 0 10.46 3.69 93.52 93.52 0 0 0 33 3.49c1.54-.12 3.09-.27 4.63-.38l.15 5.08v.29l12.1 4.92z" fill="url(#a)"/><path d="m188.66 174.82a1.86 1.86 0 0 1 2.68-.5c2.08 1.46 5.88 4.56 11.28 5.64 7.36 1.46 13.74-1.48 15.27.41.86 1.07-.19 2.38-2.2 4a19.69 19.69 0 0 1 -14.86 3.69c-7.08-1.33-12.4-9.53-12.4-12.43a1.72 1.72 0 0 1 .23-.81z" fill="#fff"/></svg>