<svg viewBox="0 0 366.34 366.34" xmlns="http://www.w3.org/2000/svg" xmlns:xlink="http://www.w3.org/1999/xlink"><linearGradient id="a" gradientUnits="userSpaceOnUse" x1="135.61" x2="164.83" y1="137.64" y2="68.33"><stop offset=".29" stop-color="#00214e"/><stop offset=".51" stop-color="#6878b1"/><stop offset=".79" stop-color="#00214e"/></linearGradient><path d="m244.67 107.86c-4.24-19.92-6-35.11-23.19-47.8-13.73-10.12-31.27-15.53-48.34-14.18-14.48 1.15-32.65 6.3-46.87 15a58.94 58.94 0 0 0 -16.21 14.12c-6.31 8.32-10.83 18.44-14.27 29.18-5.18 16.15-8 33.72-10.79 48.71-4.85 25.51-9.19 51.11-13.54 76.71 29.94 3 186.24 2.11 186.24 2.11s-3.58-79.56-13.03-123.85zm-74.17 20.44-16.8-5.43 50.66-19 3.71 2.06z" fill="#00214e"/><path d="m296.41 282.34a184.56 184.56 0 0 1 -226.48-1l48.66-22.81a47.68 47.68 0 0 0 4.35-2.34l1.12-.7c.4-.25.79-.51 1.18-.78a46.54 46.54 0 0 0 14.67-16.47c4-7.55 5.32-15.89 5.38-24.39 0-5.72-.31-11.44-.37-17.17q-.06-4.75-.1-9.51l2 1 5.2 2.69 30.27 5.14 31.12 5.3.94 32 .47 15.87 11.47 4.67 9 3.64z" fill="#f2d4cf"/><path d="m214.16 229.6c-2.72 1.68-5.29 2.47-7.54 2.23-14.79-1.59-43.64-13.18-61.8-34.63q0-1.57-.06-3.15-.06-4.76-.1-9.51l2 1 5.2 2.69 30.29 5.15 31.12 5.3z" fill="#daaea8"/><path d="m296.41 282.34a184.56 184.56 0 0 1 -226.48-1l48.66-22.81q2.25-1.06 4.35-2.33c23.68 17.41 56.64 28.74 85.06 15.95 8.06-3.62 15.33-10.05 18.29-18.31l9 3.64z" fill="#ff2609"/><circle cx="118.14" cy="153.89" fill="#f2d4cf" r="17"/><circle cx="124.14" cy="151.89" fill="#daaea8" r="17"/><path d="m233.68 128.14c11.74 40.69-13.2 89.88-28.54 89.88-21 0-72-16.78-83.73-57.47s3.87-80.92 34.87-89.87 65.65 16.78 77.4 57.46z" fill="#f2d4cf"/><path d="m202.93 124.13a31.08 31.08 0 0 1 22.85-2.13" fill="none" stroke="#00214e" stroke-miterlimit="10"/><path d="m154.05 126.42a36.76 36.76 0 0 1 31.23-1" fill="none" stroke="#00214e" stroke-miterlimit="10"/><ellipse cx="167.28" cy="139.45" fill="#00214e" rx="3.27" ry="7.94" transform="matrix(.07376038 -.99727599 .99727599 .07376038 15.86 295.97)"/><ellipse cx="218.77" cy="137.8" fill="#00214e" rx="7.94" ry="3.27" transform="matrix(.97345921 -.2288606 .2288606 .97345921 -25.74 53.74)"/><path d="m203.73 148.49s.29 5.65 1.62 8.3c.57 1.14 1.45 2.11 2 3.24 2.21 4.34-1.37 5.25-4.81 5.25" fill="none" stroke="#00214e" stroke-miterlimit="10"/><path d="m189.81 158.37a3.4 3.4 0 0 0 2.11 6.38" fill="none" stroke="#00214e" stroke-miterlimit="10"/><path d="m171.83 173.88a1.87 1.87 0 0 1 2.69-.5c2.07 1.46 5.87 4.56 11.27 5.63 7.36 1.47 13.75-1.48 15.27.42.86 1.07-.19 2.38-2.2 4a19.68 19.68 0 0 1 -14.86 3.74c-7.09-1.33-12.4-9.53-12.4-12.43a1.69 1.69 0 0 1 .23-.86z" fill="#fff"/><path d="m226.5 95.61-22.14 8.29-50.66 18.97h-.01l-37.83 14.17-.58-26.57-.78-35.86 23.49-7.32 37.51-11.68z" fill="#00214e"/><path d="m204.36 103.9-50.66 19-38.41-12.4-19.49-6.29c3.44-10.74 8-20.86 14.27-29.18a58.94 58.94 0 0 1 16.21-14.09c3.5 1.89 7.47 4 11.72 6.38 23.45 12.79 55.57 30.59 66.36 36.58z" fill="url(#a)"/></svg>