<svg viewBox="0 0 366.34 366.34" xmlns="http://www.w3.org/2000/svg" xmlns:xlink="http://www.w3.org/1999/xlink"><linearGradient id="a" gradientUnits="userSpaceOnUse" x1="69.93" x2="296.41" y1="286.4" y2="286.4"><stop offset="0" stop-color="#16243f"/><stop offset="1" stop-color="#6878b1"/></linearGradient><path d="m270.44 208.43s-185.32-8.43-187.26-8.51c-5-6.76.42-22.1 4.31-28.06 6.74-10.32 18.92-17 22.94-28.66 4.63-13.45-3.12-24.06-4.33-36.78-1.1-12.07 3.77-24.42 11.75-33.42 16.15-18 42.94-26.92 68.81-26.72 13.5.09 26.74 2.67 38.08 7.7 1.38.61 2.72 1.25 4 1.93 1 .53 2 1.09 3 1.68a75.15 75.15 0 0 1 26.95 27.59c7.91 13.84 9.79 26.67 5.16 42-3 9.82-6.73 20-4.87 30 2 11.05 10.54 20 12.78 31 1.43 6.76.38 13.68-1.32 20.25z" fill="#f2d4cf"/><path d="m296.41 281.75a184.56 184.56 0 0 1 -226.48-1l48.66-22.81a46.83 46.83 0 0 0 6.65-3.82c.64-.44 1.28-.9 1.89-1.38a46.35 46.35 0 0 0 12.78-15.09 44.69 44.69 0 0 0 4.64-14.48 67.91 67.91 0 0 0 .74-9.91c0-5.72-.31-11.44-.37-17.17q-.06-4.76-.1-9.51l2 1 5.2 2.69 2.41.41 27.88 4.74 31.12 5.3.94 32 .31 10.46.15 5.08v.33l12.1 4.92z" fill="#f2a196"/><path d="m214.71 246.19a16 16 0 0 1 -10.07-1.56l-59.64-48.78c-.07-2.26-.13.11-.16-2.15q-.06-4.75-.1-9.51l2 1 5.2 2.69 2.41.41 27.88 4.74 31.12 5.3.94 32 .31 10.46.15 5.08v.33z" fill="#e88870"/><path d="m296.41 281.75a184.56 184.56 0 0 1 -226.48-1l48.66-22.81a46.83 46.83 0 0 0 6.65-3.82c.64-.44 1.28-.9 1.89-1.38 23.55 16.76 55.69 27.33 83.49 14.82 6.62-3 12.7-7.84 16.3-14.06z" fill="url(#a)"/><circle cx="132.97" cy="160.54" fill="#f2a196" r="17"/><circle cx="138.36" cy="160.29" fill="#e88870" r="15.22"/><path d="m137.83 144.25 7.06 56.75c.18 1.46 11 5.74 12.27 6.41 14.5 7.59 29.43 17.69 45.84 20.29 7 1.11 14.35 1 21-1.57 11.72-4.5 13.3-13.32 17.32-23.7a184.21 184.21 0 0 0 8.52-28.81c2-9.4 3.78-22.33-3.12-30.39-.84-1-1.74-1.53-1.57-3 1.46-12.32 3.78-26.26-1.59-37.9-3.5-7.57-9.16-13.94-15.37-19.49 0 0-47.23 35.5-51.52 38-10.23 5.87-38.84 23.41-38.84 23.41z" fill="#f2a196"/><g fill="none" stroke="#00214e" stroke-miterlimit="10"><path d="m215.17 141c0 .29 12.66 29.82 12.66 29.82l-15 1.45"/><path d="m169.14 128.61a80.61 80.61 0 0 1 28.06-2.11"/><path d="m228.28 128.3a55.39 55.39 0 0 1 17.38-2"/></g><path d="m191.25 182.07a1.86 1.86 0 0 1 2.66-.62c2.14 1.37 6.08 4.3 11.52 5.13 7.41 1.14 13.67-2.08 15.27-.25.91 1-.08 2.38-2 4.14a19.72 19.72 0 0 1 -14.7 4.34c-7.13-1-12.81-9-12.93-11.88a1.7 1.7 0 0 1 .18-.86z" fill="#fff"/><path d="m186.58 139.76c6.09-.27 6.58 9.05.49 9.41h-.27c-6.1.27-6.59-9.05-.49-9.41z" fill="#00214e"/><path d="m236.74 136.48c5.65-.25 6.11 8.39.45 8.73h-.25c-5.66.25-6.11-8.39-.46-8.73z" fill="#00214e"/></svg>